<?xml version="1.0" encoding="UTF-8" standalone="no"?>
<svg
   xmlns:svg="http://www.w3.org/2000/svg"
   xmlns="http://www.w3.org/2000/svg"
   width="64px"
   height="64px"
   id="svg2816"
   version="1.1"
   sodipodi:docname="arrow_right.svg">
  <g id="layer1">
    <path
       id="path3622"
       d="M 34.090099,4.546795 C 33.121727,4.532073 32.161761,5.0632768 30.987745,6.0979724 L 12.930448,26.064412 c -1.123275,1.242037 1.348172,3.022808 3.022807,3.022808 l 9.943446,0 c -0.03517,0.185079 -0.07955,0.361214 -0.07955,0.556833 l 0,28.796216 c 0,1.674635 1.348172,3.022807 3.022807,3.022807 l 9.545708,0 c 1.674635,0 3.022807,-1.348172 3.022807,-3.022807 l 0,-28.796216 c 0,-0.195619 -0.04438,-0.371754 -0.07955,-0.556833 l 9.307065,0 c 1.674635,0 4.095902,-1.737168 3.022807,-3.022808 L 37.192454,6.3366151 C 36.03525,5.1221653 35.058472,4.5615172 34.090099,4.546795 z" />
  </g>
</svg>
