<?xml version="1.0" encoding="utf-8"?>
<!-- Generator: Adobe Illustrator 15.1.0, SVG Export Plug-In . SVG Version: 6.00 Build 0)  -->
<!DOCTYPE svg PUBLIC "-//W3C//DTD SVG 1.1//EN" "http://www.w3.org/Graphics/SVG/1.1/DTD/svg11.dtd">
<svg version="1.1" id="Layer_1" xmlns="http://www.w3.org/2000/svg" xmlns:xlink="http://www.w3.org/1999/xlink" x="0px" y="0px"
	 width="180.284px" height="180.284px" viewBox="11.274 82.408 180.284 180.284"
	 enable-background="new 11.274 82.408 180.284 180.284" xml:space="preserve">
<g>
	<path fill="#DD4814" d="M120.732,210.424c-31.26,0-56.691-25.433-56.691-56.691c0-31.261,25.432-56.692,56.691-56.692
		c31.259,0,56.692,25.432,56.692,56.692C177.425,184.991,151.991,210.424,120.732,210.424"/>
	<path fill="#DD4814" d="M57.083,157.812c1.299,20.461,12.287,38.332,28.418,49.062l0.002-0.004l-39.398,22.748l10.384-38.738
		l-38.732-10.358l39.332-22.709H57.083z"/>
	<path fill="#DD4814" d="M92.378,210.855c8.546,4.258,18.174,6.655,28.354,6.655c10.173,0,19.8-2.396,28.343-6.651l-0.002-0.004
		v45.634l-28.355-28.362l-28.337,28.362v-45.638L92.378,210.855z"/>
</g>
</svg>
