<?xml version="1.0" encoding="utf-8"?>
<!-- Generator: Adobe Illustrator 15.1.0, SVG Export Plug-In . SVG Version: 6.00 Build 0)  -->
<!DOCTYPE svg PUBLIC "-//W3C//DTD SVG 1.1//EN" "http://www.w3.org/Graphics/SVG/1.1/DTD/svg11.dtd">
<svg version="1.1" id="Layer_1" xmlns="http://www.w3.org/2000/svg" xmlns:xlink="http://www.w3.org/1999/xlink" x="0px" y="0px"
	 width="141.732px" height="141.732px" viewBox="70.866 70.866 141.732 141.732"
	 enable-background="new 70.866 70.866 141.732 141.732" xml:space="preserve">
<path fill="#DD4814" d="M141.73,85.04c-31.26,0-56.69,25.433-56.69,56.693c0,31.26,25.431,56.693,56.69,56.693
	c31.262,0,56.696-25.434,56.696-56.693C198.426,110.474,172.992,85.04,141.73,85.04z M141.732,166.535
	c-13.677,0-24.803-11.125-24.803-24.803c0-13.677,11.126-24.803,24.803-24.803c13.675,0,24.803,11.126,24.803,24.803
	C166.535,155.41,155.407,166.535,141.732,166.535z M141.732,124.016c-9.77,0-17.716,7.948-17.716,17.716
	c0,9.77,7.947,17.717,17.716,17.717s17.717-7.947,17.717-17.717C159.449,131.964,151.501,124.016,141.732,124.016z M141.732,152.361
	c-5.872,0-10.63-4.758-10.63-10.629c0-5.871,4.758-10.63,10.63-10.63c5.872,0,10.63,4.759,10.63,10.63
	C152.362,147.604,147.604,152.361,141.732,152.361z"/>
</svg>
