<?xml version="1.0" encoding="utf-8"?>
<!-- Generator: Adobe Illustrator 16.0.0, SVG Export Plug-In . SVG Version: 6.00 Build 0)  -->
<!DOCTYPE svg PUBLIC "-//W3C//DTD SVG 1.1//EN" "http://www.w3.org/Graphics/SVG/1.1/DTD/svg11.dtd">
<svg version="1.1" id="Layer_1" xmlns="http://www.w3.org/2000/svg" xmlns:xlink="http://www.w3.org/1999/xlink" x="0px" y="0px"
	 width="933px" height="350px" viewBox="0 0 933 350" enable-background="new 0 0 933 350" xml:space="preserve">
<g id="Layer_2">
</g>
<g id="Layer_1_1_">
	<path fill="#CCCCCC" d="M986.5,388.5h-988v-423h988V388.5z M121.849,36.263l-14.324,55.029L92.482,36.263H78.711L65.106,91.292
		L50.505,36.263H36.071L56.7,111.755h13.992l13.66-55.527l15.043,55.527h14.269l20.187-75.492H121.849z M191.685,100.03h-35.451
		V78.903h28.095v-10.95h-28.095V47.49h34.953V36.263h-48.558v75.492h49.056V100.03z M236.178,111.755
		c7.927,0,13.799-1.981,17.615-5.945c3.816-3.963,5.724-8.857,5.724-14.684c0-4.646-1.364-8.664-4.092-12.057
		c-2.729-3.392-6.748-5.549-12.057-6.471c4.276-0.848,7.632-2.811,10.065-5.89c2.434-3.078,3.65-6.701,3.65-10.867
		c0-4.425-1.199-8.277-3.595-11.559c-2.397-3.281-5.236-5.438-8.517-6.471c-3.282-1.032-7.411-1.548-12.389-1.548H203.16v75.492
		H236.178z M216.047,47.047h16.315c3.023,0,5.659,0.821,7.909,2.461c2.249,1.641,3.374,4.194,3.374,7.66
		c0,3.134-0.987,5.715-2.959,7.743c-1.973,2.028-4.655,3.042-8.047,3.042h-16.591L216.047,47.047L216.047,47.047z M216.047,78.737
		h17.642c3.613,0,6.517,1.015,8.711,3.042c2.193,2.028,3.291,4.627,3.291,7.798c0,3.318-1.079,5.955-3.235,7.908
		c-2.157,1.955-5.098,2.932-8.821,2.932h-17.587L216.047,78.737L216.047,78.737z M337.578,36.263H320.82l-25.054,75.492h11.614
		l5.917-17.974h29.035l6.028,17.974h14.545L337.578,36.263z M316.672,82.885l11.006-33.681l11.006,33.681H316.672z M391.471,47.933
		h20.076v-11.67h-54.752v11.669h20.076v63.822h14.601L391.471,47.933L391.471,47.933z M468.898,100.03h-35.45V78.903h28.095v-10.95
		h-28.095V47.49h34.953V36.263h-48.559v75.492h49.056V100.03z M526.831,99.422h-32.132V36.263h-14.324v75.492h46.456V99.422z
		 M549.496,36.263h-13.605v75.492h13.605V36.263z M614.43,100.03H578.98V78.903h28.095v-10.95H578.98V47.49h34.951V36.263h-48.558
		v75.492h49.056V100.03L614.43,100.03z M671.532,78.406c9.069-3.65,13.604-10.323,13.604-20.021c0-6.526-2.14-11.844-6.416-15.956
		c-4.276-4.111-10.97-6.167-20.075-6.167h-32.74v75.492h13.604V80.729h19.136l11.726,31.026h14.379L671.532,78.406z M639.511,47.103
		h18.029c4.239,0,7.539,1.023,9.899,3.069c2.358,2.046,3.539,4.729,3.539,8.047c0,3.614-1.198,6.453-3.596,8.517
		c-2.396,2.065-6.047,3.097-10.95,3.097H639.51L639.511,47.103L639.511,47.103z M770.525,104.869
		c4.996-5.364,7.494-12.452,7.494-21.265c0-8.553-2.406-15.504-7.219-20.85c-4.812-5.346-10.96-8.02-18.443-8.02
		c-7.892,0-14.241,2.747-19.054,8.241c-4.812,5.494-7.217,12.37-7.217,20.629c0,7.669,2.175,14.472,6.525,20.408
		c4.351,5.937,10.655,8.904,18.915,8.904C759.196,112.917,765.529,110.234,770.525,104.869z M742.817,97.708
		c-2.231-3.208-3.347-7.854-3.347-13.937c0-5.641,1.052-10.167,3.152-13.578c2.102-3.41,5.327-5.116,9.678-5.116
		c4.204,0,7.319,1.65,9.348,4.95c2.026,3.3,3.041,7.808,3.041,13.522c0,12.646-4.239,18.97-12.72,18.97
		C748.099,102.519,745.048,100.915,742.817,97.708z M803.001,65.686h12.389v-9.789h-12.389c0-3.465,0.119-5.76,0.359-6.886
		c0.238-1.124,0.985-2.102,2.239-2.931c1.253-0.83,3.43-1.244,6.525-1.244c0.59,0,1.678,0.055,3.264,0.166v-9.9
		c-1.808-0.073-3.301-0.111-4.479-0.111c-8.075,0-13.439,1.659-16.095,4.978c-2.654,3.318-3.981,7.707-3.981,13.163v2.765h-8.296
		v9.789h8.296v46.069h12.167V65.686z M123.085,145.76h-14.484v71.004c-4.032-6.818-6.197-10.478-6.496-10.976L66.416,145.76H46.108
		v101.914h14.783v-74.662c1.244,2.141,2.165,3.708,2.763,4.703c1.344,2.24,2.314,3.858,2.912,4.854l38.675,65.105h17.844V145.76
		L123.085,145.76z M198.897,145.76h-22.623l-33.822,101.914h15.679l7.989-24.266h39.198l8.138,24.266h19.636L198.897,145.76z
		 M170.675,208.7l14.858-45.469L200.39,208.7H170.675L170.675,208.7z M280.31,161.514h27.103V145.76h-73.916v15.754h27.103v86.16
		h19.71V161.514L280.31,161.514z M392.482,231.846h-47.858v-28.521h37.928v-14.783h-37.928v-27.625h47.187V145.76h-65.554v101.914
		h66.227L392.482,231.846L392.482,231.846z M537.461,145.76h-18.366v41.887h-38.898V145.76h-18.367v101.914h18.367V203.4h38.898
		v44.273h18.366V145.76z M633.73,231.846h-47.858v-28.521h37.929v-14.783h-37.929v-27.625h47.187V145.76h-65.554v101.914h66.226
		V231.846L633.73,231.846z M661.646,242.896c7.591,4.23,16.438,6.347,26.543,6.347c11.994,0,21.765-2.875,29.306-8.624
		s11.312-13.626,11.312-23.631c0-6.221-1.792-11.908-5.376-17.061s-10.628-9.046-21.13-11.686l-17.32-4.33
		c-9.457-2.339-14.187-6.421-14.187-12.245c0-3.683,1.505-6.72,4.517-9.109c3.013-2.389,7.38-3.583,13.104-3.583
		c9.854,0,16.127,3.858,18.814,11.573l17.472-4.331c-1.894-7.019-6.285-12.443-13.178-16.276
		c-6.896-3.833-14.723-5.749-23.481-5.749c-10.554,0-19.214,2.751-25.981,8.25c-6.771,5.5-10.154,12.805-10.154,21.914
		c0,4.58,0.958,8.885,2.874,12.917c1.916,4.031,4.467,7.154,7.653,9.369c3.185,2.215,8.111,4.193,14.782,5.937l19.486,5.077
		c5.227,1.344,8.636,3.197,10.229,5.563c1.592,2.364,2.389,4.939,2.389,7.727c0,3.835-1.754,7.045-5.264,9.633
		c-3.51,2.589-8.524,3.883-15.045,3.883c-14.285,0-22.499-5.052-24.639-15.156l-17.845,3.809
		C649.017,232.068,654.057,238.665,661.646,242.896z M756.646,242.896c7.591,4.23,16.438,6.347,26.543,6.347
		c11.994,0,21.765-2.875,29.306-8.624s11.312-13.626,11.312-23.631c0-6.221-1.792-11.908-5.376-17.061s-10.628-9.046-21.13-11.686
		l-17.32-4.33c-9.457-2.339-14.187-6.421-14.187-12.245c0-3.683,1.505-6.72,4.517-9.109c3.013-2.389,7.38-3.583,13.104-3.583
		c9.854,0,16.127,3.858,18.814,11.573l17.472-4.331c-1.894-7.019-6.285-12.443-13.178-16.276
		c-6.896-3.833-14.723-5.749-23.481-5.749c-10.554,0-19.214,2.751-25.981,8.25c-6.771,5.5-10.154,12.805-10.154,21.914
		c0,4.58,0.958,8.885,2.874,12.917c1.916,4.031,4.467,7.154,7.653,9.369c3.185,2.215,8.111,4.193,14.782,5.937l19.486,5.077
		c5.227,1.344,8.636,3.197,10.229,5.563c1.592,2.364,2.389,4.939,2.389,7.727c0,3.835-1.754,7.045-5.264,9.633
		c-3.51,2.589-8.524,3.883-15.045,3.883c-14.285,0-22.499-5.052-24.639-15.156l-17.845,3.809
		C744.017,232.068,749.057,238.665,756.646,242.896z M60.112,310.813c0-2.196-0.492-3.733-1.477-4.608
		c-0.985-0.875-2.169-1.313-3.555-1.313c-2.052,0-3.646,1.328-4.781,3.984v-3.656h-3.25V321h3.563v-8.109
		c0-1.635,0.349-2.858,1.047-3.672c0.698-0.813,1.51-1.219,2.438-1.219c0.677,0,1.255,0.264,1.734,0.789s0.719,1.311,0.719,2.352
		V321h3.563L60.112,310.813L60.112,310.813z M70.755,318.25c-1,0-1.68-0.18-2.039-0.539c-0.359-0.359-0.539-1.033-0.539-2.023
		v-7.703h3.172v-2.766h-3.172v-4.375l-2.922,0.266l-0.328,4.109h-2.172v2.766h1.969v8.173c0,1.375,0.159,2.394,0.477,3.055
		c0.317,0.662,0.82,1.183,1.508,1.563c0.688,0.379,1.51,0.569,2.469,0.569c0.583,0,1.406-0.114,2.469-0.344v-2.781
		C71.333,318.24,71.036,318.25,70.755,318.25z M87.705,310.156c0-3.719-1.62-5.578-4.859-5.578c-2.219,0-3.771,1.136-4.656,3.406
		v-8.313h-3.563V321h3.563v-8.188c0-1.845,0.344-3.166,1.031-3.97c0.688-0.802,1.536-1.202,2.547-1.202
		c0.635,0,1.19,0.227,1.664,0.68s0.711,1.236,0.711,2.352V321h3.563L87.705,310.156L87.705,310.156z M105.103,310.813
		c0-2.196-0.492-3.733-1.477-4.608s-2.169-1.313-3.555-1.313c-2.052,0-3.646,1.328-4.781,3.984v-3.656h-3.25V321h3.563v-8.109
		c0-1.635,0.349-2.858,1.047-3.672c0.698-0.813,1.51-1.219,2.438-1.219c0.677,0,1.255,0.264,1.734,0.789s0.719,1.311,0.719,2.352
		V321h3.563L105.103,310.813L105.103,310.813z M109.361,316.906V321h3.859v-4.094H109.361z M130.557,310.156
		c0-3.719-1.62-5.578-4.859-5.578c-2.219,0-3.771,1.136-4.656,3.406v-8.313h-3.563V321h3.563v-8.188c0-1.845,0.344-3.166,1.031-3.97
		c0.688-0.802,1.536-1.202,2.547-1.202c0.635,0,1.19,0.227,1.664,0.68c0.474,0.453,0.711,1.236,0.711,2.352V321h3.563
		L130.557,310.156L130.557,310.156z M135.738,320.352c1.239,0.65,2.667,0.978,4.281,0.978c1.864,0,3.474-0.431,4.828-1.289
		s2.031-2.158,2.031-3.897c0-2.479-1.318-3.99-3.953-4.531l-3.391-0.703c-1.531-0.313-2.297-0.881-2.297-1.703
		c0-1.188,0.948-1.781,2.844-1.781c1.563,0,2.51,0.594,2.844,1.781l3.172-0.641c-0.74-2.447-2.776-3.672-6.109-3.672
		c-2,0-3.505,0.486-4.516,1.461c-1.011,0.975-1.516,2.158-1.516,3.555c0,2.5,1.594,4.058,4.781,4.672l2.875,0.547
		c0.469,0.094,0.875,0.275,1.219,0.547c0.344,0.271,0.516,0.615,0.516,1.031c0,1.303-1.104,1.953-3.313,1.953
		c-1.74,0-2.865-0.641-3.375-1.922l-3.344,0.641C133.691,318.709,134.498,319.701,135.738,320.352z M151.223,320.352
		c1.239,0.65,2.667,0.978,4.281,0.978c1.864,0,3.474-0.431,4.828-1.289s2.031-2.158,2.031-3.897c0-2.479-1.318-3.99-3.953-4.531
		l-3.391-0.703c-1.531-0.313-2.297-0.881-2.297-1.703c0-1.188,0.948-1.781,2.844-1.781c1.563,0,2.51,0.594,2.844,1.781l3.172-0.641
		c-0.74-2.447-2.776-3.672-6.109-3.672c-2,0-3.505,0.486-4.516,1.461c-1.011,0.975-1.516,2.158-1.516,3.555
		c0,2.5,1.594,4.058,4.781,4.672l2.875,0.547c0.469,0.094,0.875,0.275,1.219,0.547c0.344,0.271,0.516,0.615,0.516,1.031
		c0,1.303-1.104,1.953-3.313,1.953c-1.74,0-2.865-0.641-3.375-1.922l-3.344,0.641C149.176,318.709,149.983,319.701,151.223,320.352z
		 M178.123,304.734l-0.125,1.094c-0.625-0.896-1.646-1.344-3.063-1.344c-1.469,0-2.734,0.58-3.797,1.742s-1.594,2.67-1.594,4.522
		c0,1.804,0.471,3.256,1.414,4.358c0.942,1.104,2.075,1.656,3.398,1.656c1.292,0,2.385-0.563,3.281-1.688
		c0.489,1.084,1.375,1.625,2.656,1.625c1.646,0,3.042-0.794,4.188-2.383c1.146-1.588,1.719-3.398,1.719-5.43
		c0-2.803-1.021-5.123-3.063-6.961c-2.042-1.839-4.563-2.759-7.563-2.759c-3.188,0-5.906,1.068-8.156,3.203
		c-2.25,2.136-3.375,4.792-3.375,7.969c0,3.042,1.07,5.659,3.211,7.853s5.028,3.289,8.664,3.289c2.739,0,5.385-0.65,7.938-1.953
		l-0.922-2.125c-2.386,1.229-4.724,1.844-7.016,1.844c-2.948,0-5.237-0.883-6.867-2.648c-1.63-1.766-2.445-3.846-2.445-6.242
		c0-2.563,0.867-4.719,2.602-6.469s3.877-2.625,6.43-2.625c2.323,0,4.299,0.707,5.93,2.117c1.63,1.412,2.445,3.248,2.445,5.508
		c0,1.563-0.367,2.895-1.102,3.992c-0.734,1.1-1.503,1.648-2.305,1.648c-0.5,0-0.75-0.35-0.75-1.047
		c0-0.469,0.031-0.959,0.094-1.469l0.859-7.281h-2.686V304.734z M172.959,313.273c-0.412-0.631-0.617-1.431-0.617-2.398
		c0-1.135,0.266-2.061,0.797-2.773c0.531-0.713,1.203-1.069,2.016-1.069c0.75,0,1.383,0.288,1.898,0.866
		c0.515,0.578,0.773,1.232,0.773,1.961c0,1.293-0.336,2.343-1.008,3.148c-0.672,0.809-1.425,1.211-2.258,1.211
		C173.904,314.219,173.37,313.904,172.959,313.273z M202.172,302.203c-2.052,0-3.318,1.006-3.797,3.016
		c-1.031-0.219-2.047-0.328-3.047-0.328c-2.188,0-3.818,0.465-4.891,1.392c-1.073,0.928-1.609,2.047-1.609,3.358
		c0,1.553,0.729,2.771,2.188,3.656c-1.677,0.813-2.516,1.906-2.516,3.281c0,0.906,0.489,1.775,1.469,2.609
		c-1.531,0.729-2.297,1.797-2.297,3.203c0,2.844,2.547,4.266,7.641,4.266c2.708,0,4.752-0.49,6.133-1.469
		c1.38-0.979,2.07-2.215,2.07-3.703c0-1.229-0.456-2.258-1.367-3.086c-0.912-0.828-2.169-1.242-3.773-1.242h-4.688
		c-0.719,0-1.255-0.161-1.609-0.484c-0.354-0.322-0.531-0.677-0.531-1.063c0-0.697,0.364-1.213,1.094-1.547
		c1.114,0.271,2.088,0.405,2.922,0.405c1.927,0,3.477-0.458,4.648-1.375c1.172-0.915,1.758-2.071,1.758-3.469
		c0-1.25-0.625-2.385-1.875-3.406c0.344-0.625,0.695-0.993,1.055-1.108c0.359-0.114,0.778-0.172,1.258-0.172h1.094v-2.734H202.172z
		 M194.063,320.531h3.781c0.614,0,1.161,0.133,1.641,0.398c0.479,0.266,0.719,0.657,0.719,1.18c0,1.406-1.37,2.108-4.109,2.108
		c-1.865,0-3.224-0.272-4.078-0.819s-1.281-1.181-1.281-1.898c0-0.438,0.255-0.891,0.766-1.359
		C192.489,320.4,193.344,320.531,194.063,320.531z M193.281,311.641c-0.511-0.479-0.766-1.104-0.766-1.875
		c0-0.75,0.258-1.375,0.773-1.875s1.242-0.75,2.18-0.75c0.927,0,1.633,0.24,2.117,0.719c0.484,0.479,0.727,1.068,0.727,1.767
		c0,1.823-0.969,2.733-2.906,2.733C194.5,312.359,193.792,312.12,193.281,311.641z M229.612,309.844
		c0-1.406-0.464-2.583-1.391-3.531c-0.927-0.946-2.151-1.422-3.672-1.422c-2.24,0-3.995,1.229-5.266,3.688
		c-0.698-2.458-2.208-3.688-4.531-3.688c-2.386,0-4.141,1.229-5.266,3.688v-3.359h-3.453V321h3.672v-8.281
		c0-1.438,0.352-2.572,1.055-3.406c0.703-0.832,1.57-1.25,2.602-1.25c1.698,0,2.547,1.037,2.547,3.109V321h3.781v-8.281
		c0-1.531,0.315-2.682,0.945-3.453c0.63-0.771,1.471-1.156,2.523-1.156c1.813,0,2.719,1.021,2.719,3.063V321h3.734L229.612,309.844
		L229.612,309.844z M247.027,317.813v-7.125c0-1.354-0.102-2.313-0.305-2.883c-0.203-0.566-0.57-1.094-1.102-1.578
		c-0.532-0.483-1.183-0.828-1.953-1.031c-0.771-0.202-1.766-0.305-2.984-0.305c-2.25,0-3.969,0.426-5.156,1.273
		c-1.188,0.85-1.865,1.93-2.031,3.242l3.031,0.453c0.292-1.635,1.521-2.453,3.688-2.453c2.229,0,3.344,0.818,3.344,2.453v1.188
		c-0.427-0.01-0.766-0.016-1.016-0.016c-6.365,0-9.547,1.813-9.547,5.438c0,1.396,0.477,2.555,1.43,3.477
		c0.953,0.923,2.216,1.384,3.789,1.384c2.614,0,4.396-1.172,5.344-3.517c0.063,1.168,0.245,2.229,0.547,3.188h3.391
		C247.183,319.906,247.027,318.844,247.027,317.813z M243.558,314.422c0,1.094-0.347,2.07-1.039,2.93
		c-0.693,0.859-1.716,1.289-3.07,1.289c-0.938,0-1.638-0.23-2.102-0.695c-0.464-0.463-0.695-1.022-0.695-1.68
		c0-2.197,2.302-3.297,6.906-3.297V314.422z M254.894,299.672h-3.563v3.703h3.563V299.672z M254.894,305.219h-3.563V321h3.563
		V305.219z M262.776,299.672h-3.563V321h3.563V299.672z M267.018,316.906V321h3.859v-4.094H267.018z M280.93,318.219
		c-1.021,0-1.814-0.432-2.383-1.297c-0.568-0.863-0.852-2.094-0.852-3.688c0-1.5,0.272-2.778,0.819-3.836
		c0.548-1.058,1.425-1.586,2.634-1.586c1.655,0,2.619,0.979,2.891,2.938l3.063-0.422c-0.655-3.625-2.702-5.438-6.141-5.438
		c-2.136,0-3.844,0.775-5.125,2.327c-1.281,1.554-1.922,3.517-1.922,5.892c0,2.303,0.586,4.248,1.758,5.836
		c1.172,1.589,2.846,2.383,5.023,2.383c1.604,0,2.974-0.475,4.108-1.422c1.136-0.947,1.901-2.411,2.297-4.391l-3.063-0.313
		C283.529,317.214,282.493,318.219,280.93,318.219z M301.868,319.055c1.411-1.516,2.117-3.518,2.117-6.008
		c0-2.416-0.681-4.38-2.039-5.891c-1.359-1.51-3.098-2.266-5.211-2.266c-2.229,0-4.023,0.775-5.384,2.327
		c-1.358,1.554-2.038,3.495-2.038,5.828c0,2.167,0.613,4.089,1.844,5.767c1.229,1.678,3.01,2.516,5.344,2.516
		C298.667,321.328,300.457,320.57,301.868,319.055z M294.04,317.031c-0.63-0.906-0.945-2.219-0.945-3.938
		c0-1.594,0.297-2.872,0.892-3.836c0.594-0.963,1.505-1.444,2.733-1.444c1.188,0,2.067,0.467,2.642,1.397
		c0.572,0.933,0.858,2.206,0.858,3.82c0,3.573-1.197,5.358-3.594,5.358C295.532,318.391,294.67,317.938,294.04,317.031z
		 M330.974,309.844c0-1.406-0.464-2.583-1.391-3.531c-0.927-0.946-2.151-1.422-3.672-1.422c-2.24,0-3.995,1.229-5.267,3.688
		c-0.697-2.458-2.207-3.688-4.53-3.688c-2.386,0-4.142,1.229-5.267,3.688v-3.359h-3.453V321h3.673v-8.281
		c0-1.438,0.352-2.572,1.055-3.406c0.703-0.832,1.57-1.25,2.602-1.25c1.698,0,2.548,1.037,2.548,3.109V321h3.78v-8.281
		c0-1.531,0.315-2.682,0.945-3.453c0.63-0.771,1.471-1.156,2.522-1.156c1.813,0,2.72,1.021,2.72,3.063V321h3.733L330.974,309.844
		L330.974,309.844z M362.632,299.672l-13.891,26.656h2.219l13.953-26.656H362.632z M388.953,317.672
		c4.948-2.791,8.047-4.902,9.297-6.336c1.25-1.432,1.875-3.061,1.875-4.883c0-2.063-0.703-3.764-2.109-5.102
		c-1.405-1.338-3.287-2.009-5.641-2.009c-2.271,0-4.107,0.675-5.508,2.023c-1.401,1.35-2.242,2.972-2.523,4.866l3.703,0.923
		c0.364-2.97,1.766-4.453,4.203-4.453c1.114,0,2.021,0.358,2.719,1.078c0.698,0.719,1.047,1.604,1.047,2.655
		c0,0.875-0.349,1.836-1.047,2.883c-0.697,1.048-2.063,2.248-4.094,3.603l-6.531,4.345V321h15.719v-3.328H388.953z M419.843,317.859
		h-6.031v-18.625h-2.563c-0.354,0.636-0.964,1.342-1.828,2.117c-0.865,0.775-1.521,1.308-1.969,1.594
		c-0.448,0.287-1.563,0.769-3.344,1.445v3.844c1.75-0.697,3.691-1.979,5.827-3.844v13.469h-6.422V321h16.328L419.843,317.859
		L419.843,317.859z M430.042,311.578c1.333,0,2.331,0.347,2.992,1.039c0.662,0.693,0.992,1.498,0.992,2.414
		c0,0.906-0.384,1.68-1.148,2.32c-0.766,0.641-1.772,0.961-3.022,0.961c-2.418,0-3.99-1.188-4.72-3.563l-3.641,0.892
		c0.385,1.489,1.314,2.811,2.789,3.961c1.474,1.15,3.341,1.727,5.602,1.727c2.448,0,4.409-0.592,5.882-1.773
		c1.476-1.182,2.211-2.688,2.211-4.522c0-1.333-0.424-2.474-1.272-3.423c-0.849-0.946-1.971-1.524-3.367-1.733
		c1.125-0.083,2.07-0.583,2.836-1.5c0.767-0.916,1.148-2.021,1.148-3.313c0-1.738-0.711-3.127-2.133-4.164
		c-1.423-1.035-3.139-1.555-5.148-1.555c-2.021,0-3.748,0.516-5.18,1.547c-1.434,1.031-2.348,2.359-2.742,3.984l3.516,0.609
		c0.76-2.063,2.192-3.094,4.297-3.094c1.042,0,1.894,0.256,2.556,0.766c0.662,0.511,0.991,1.271,0.991,2.281
		c0,1.03-0.391,1.808-1.171,2.328s-1.755,0.78-2.922,0.78h-1.953v3.031L430.042,311.578L430.042,311.578z M441.612,316.906V321
		h3.858v-4.094H441.612z M448.943,315.594c0,1.646,0.705,3.014,2.116,4.102c1.41,1.09,3.503,1.634,6.273,1.634
		c2.625,0,4.711-0.588,6.258-1.767c1.547-1.177,2.32-2.66,2.32-4.453c0-2.416-1.547-4.285-4.642-5.608
		c2.531-1.052,3.798-2.594,3.798-4.625c0-1.666-0.687-3.005-2.056-4.017c-1.371-1.01-3.186-1.516-5.444-1.516
		c-2.48,0-4.41,0.565-5.789,1.695c-1.381,1.131-2.07,2.57-2.07,4.32c0,2.261,1.25,3.964,3.75,5.108
		C450.447,311.542,448.943,313.25,448.943,315.594z M460.967,313.781c0.66,0.542,0.992,1.172,0.992,1.891
		c0,0.834-0.398,1.52-1.195,2.055c-0.797,0.537-1.883,0.806-3.258,0.806c-1.656,0-2.883-0.328-3.68-0.984
		c-0.797-0.655-1.195-1.368-1.195-2.141c0-0.75,0.316-1.455,0.953-2.117c0.635-0.661,1.473-1.181,2.516-1.556
		C458.682,312.559,460.305,313.24,460.967,313.781z M454.865,306.891c-0.855-0.488-1.281-1.197-1.281-2.125
		c0-0.896,0.393-1.578,1.18-2.047c0.785-0.469,1.728-0.703,2.82-0.703c1.051,0,1.979,0.262,2.781,0.781
		c0.801,0.521,1.203,1.256,1.203,2.203c0,1.448-0.984,2.578-2.953,3.391C456.969,307.881,455.719,307.381,454.865,306.891z
		 M468.346,315.594c0,1.646,0.705,3.014,2.117,4.102c1.411,1.09,3.502,1.634,6.273,1.634c2.625,0,4.711-0.588,6.258-1.767
		c1.547-1.177,2.32-2.66,2.32-4.453c0-2.416-1.548-4.285-4.642-5.608c2.531-1.052,3.797-2.594,3.797-4.625
		c0-1.666-0.686-3.005-2.055-4.017c-1.37-1.01-3.186-1.516-5.445-1.516c-2.479,0-4.409,0.565-5.789,1.695
		c-1.381,1.131-2.069,2.57-2.069,4.32c0,2.261,1.25,3.964,3.75,5.108C469.851,311.542,468.346,313.25,468.346,315.594z
		 M480.369,313.781c0.661,0.542,0.992,1.172,0.992,1.891c0,0.834-0.398,1.52-1.195,2.055c-0.797,0.537-1.883,0.806-3.258,0.806
		c-1.656,0-2.883-0.328-3.68-0.984c-0.798-0.655-1.195-1.368-1.195-2.141c0-0.75,0.316-1.455,0.953-2.117
		c0.635-0.661,1.474-1.181,2.516-1.556C478.085,312.559,479.707,313.24,480.369,313.781z M474.268,306.891
		c-0.854-0.488-1.28-1.197-1.28-2.125c0-0.896,0.393-1.578,1.18-2.047c0.786-0.469,1.727-0.703,2.82-0.703
		c1.052,0,1.979,0.262,2.78,0.781c0.803,0.521,1.203,1.256,1.203,2.203c0,1.448-0.983,2.578-2.953,3.391
		C476.371,307.881,475.121,307.381,474.268,306.891z M500.591,319.773c1.25-1.037,2.161-2.359,2.734-3.969
		c0.573-1.611,0.858-3.67,0.858-6.181c0-1.5-0.305-3.106-0.914-4.819c-0.608-1.714-1.535-3.053-2.78-4.017
		c-1.245-0.963-2.77-1.445-4.57-1.445c-2.5,0-4.492,1.026-5.977,3.078c-1.484,2.054-2.228,4.767-2.228,8.142
		c0,3.125,0.708,5.701,2.125,7.727s3.434,3.039,6.047,3.039C497.773,321.328,499.341,320.811,500.591,319.773z M492.528,316.094
		c-0.614-1.479-0.922-3.432-0.922-5.859c0-5.354,1.447-8.03,4.344-8.03c1.667,0,2.794,0.787,3.383,2.358
		c0.589,1.573,0.883,3.234,0.883,4.984c0,2.115-0.12,3.771-0.358,4.969c-0.239,1.198-0.692,2.131-1.359,2.797
		c-0.667,0.668-1.542,1-2.625,1C494.258,318.313,493.143,317.573,492.528,316.094z M507.033,316.906V321h3.858v-4.094H507.033z
		 M527.317,316.156h3.202v-3.281h-3.202v-13.641h-3.953l-9.47,14.108v2.813h9.47V321h3.953V316.156z M523.458,305.297
		c-0.063,0.5-0.094,1.063-0.094,1.688v5.892h-5.767l6.047-9.625L523.458,305.297z M533.043,315.594c0,1.646,0.705,3.014,2.117,4.102
		c1.411,1.09,3.502,1.634,6.272,1.634c2.625,0,4.712-0.588,6.259-1.767c1.547-1.177,2.319-2.66,2.319-4.453
		c0-2.416-1.547-4.285-4.641-5.608c2.531-1.052,3.797-2.594,3.797-4.625c0-1.666-0.686-3.005-2.055-4.017
		c-1.37-1.01-3.187-1.516-5.445-1.516c-2.479,0-4.409,0.565-5.789,1.695c-1.381,1.131-2.07,2.57-2.07,4.32
		c0,2.261,1.25,3.964,3.75,5.108C534.548,311.542,533.043,313.25,533.043,315.594z M545.066,313.781
		c0.66,0.542,0.991,1.172,0.991,1.891c0,0.834-0.397,1.52-1.194,2.055c-0.797,0.537-1.883,0.806-3.258,0.806
		c-1.656,0-2.884-0.328-3.681-0.984c-0.797-0.655-1.194-1.368-1.194-2.141c0-0.75,0.316-1.455,0.952-2.117
		c0.636-0.661,1.475-1.181,2.517-1.556C542.782,312.559,544.404,313.24,545.066,313.781z M538.965,306.891
		c-0.854-0.488-1.281-1.197-1.281-2.125c0-0.896,0.394-1.578,1.181-2.047c0.786-0.469,1.727-0.703,2.819-0.703
		c1.053,0,1.979,0.262,2.781,0.781c0.802,0.521,1.203,1.256,1.203,2.203c0,1.448-0.984,2.578-2.953,3.391
		C541.068,307.881,539.818,307.381,538.965,306.891z M557.146,317.672c4.947-2.791,8.047-4.902,9.297-6.336
		c1.25-1.432,1.875-3.061,1.875-4.883c0-2.063-0.703-3.764-2.109-5.102s-3.286-2.009-5.641-2.009c-2.271,0-4.106,0.675-5.509,2.023
		c-1.399,1.35-2.241,2.972-2.522,4.866l3.703,0.923c0.365-2.97,1.766-4.453,4.203-4.453c1.114,0,2.021,0.358,2.719,1.078
		c0.698,0.719,1.047,1.604,1.047,2.655c0,0.875-0.349,1.836-1.047,2.883c-0.697,1.048-2.063,2.248-4.094,3.603l-6.531,4.345V321
		h15.719v-3.328H557.146z M588.037,317.859h-6.031v-18.625h-2.563c-0.355,0.636-0.966,1.342-1.828,2.117
		c-0.865,0.775-1.521,1.308-1.969,1.594c-0.449,0.287-1.563,0.769-3.345,1.445v3.844c1.75-0.697,3.691-1.979,5.828-3.844v13.469
		h-6.422V321h16.328L588.037,317.859L588.037,317.859z"/>
</g>
<g id="Layer_3">
</g>
</svg>
