<?xml version="1.0" encoding="utf-8"?>
<!-- Generator: Adobe Illustrator 15.1.0, SVG Export Plug-In . SVG Version: 6.00 Build 0)  -->
<!DOCTYPE svg PUBLIC "-//W3C//DTD SVG 1.1//EN" "http://www.w3.org/Graphics/SVG/1.1/DTD/svg11.dtd">
<svg version="1.1" id="Layer_1" xmlns="http://www.w3.org/2000/svg" xmlns:xlink="http://www.w3.org/1999/xlink" x="0px" y="0px"
	 width="141.732px" height="141.732px" viewBox="70.866 70.866 141.732 141.732"
	 enable-background="new 70.866 70.866 141.732 141.732" xml:space="preserve">
<path fill="#DD4814" d="M145.229,198.316v-24.89c15.945-1.747,28.395-15.293,28.395-31.695v-7.087h-7.076v-24.722
	c0-3.914-3.173-7.086-7.087-7.086s-7.087,3.172-7.087,7.086v24.722h-21.157v-24.722c0-3.914-3.173-7.086-7.087-7.086
	s-7.087,3.172-7.087,7.086v24.722h-7.199v7.087c0,16.372,12.401,29.893,28.3,31.683v24.896
	c-29.594-1.858-53.104-26.521-53.104-56.579c0-31.261,25.432-56.693,56.692-56.693c31.261,0,56.694,25.433,56.694,56.693
	C198.425,171.818,174.867,196.503,145.229,198.316z M141.739,166.534c9.77,0,17.717-7.947,17.717-17.718h-7.086
	c0,5.861-4.771,10.632-10.631,10.632c-5.861,0-10.63-4.771-10.63-10.632h-7.086C124.023,158.587,131.971,166.534,141.739,166.534
	L141.739,166.534z"/>
</svg>
