<?xml version="1.0" encoding="utf-8"?>
<!-- Generator: Adobe Illustrator 16.0.0, SVG Export Plug-In . SVG Version: 6.00 Build 0)  -->
<!DOCTYPE svg PUBLIC "-//W3C//DTD SVG 1.1//EN" "http://www.w3.org/Graphics/SVG/1.1/DTD/svg11.dtd">
<svg version="1.1" id="Layer_1" xmlns="http://www.w3.org/2000/svg" xmlns:xlink="http://www.w3.org/1999/xlink" x="0px" y="0px"
	 width="583px" height="82px" viewBox="0 0 583 82" enable-background="new 0 0 583 82" xml:space="preserve">
<path fill="#9B9B9B" d="M51.14,62h-6.302L31.18,39.008c-0.211-0.352-0.554-0.923-1.028-1.714c-0.211-0.352-0.537-0.905-0.976-1.661
	V62h-5.221V26.009h7.172L43.73,47.208c0.105,0.176,0.87,1.468,2.294,3.876V26.009h5.115L51.14,62L51.14,62z M81.488,62h-5.722
	c-0.51-1.617-0.817-3.41-0.923-5.379c-1.6,3.955-4.605,5.934-9.018,5.934c-2.654,0-4.786-0.779-6.394-2.334
	c-1.608-1.557-2.413-3.512-2.413-5.867c0-6.117,5.37-9.176,16.11-9.176c0.422,0,0.993,0.01,1.714,0.026V43.2
	c0-2.759-1.881-4.14-5.643-4.14c-3.656,0-5.731,1.38-6.223,4.14l-5.115-0.765c0.281-2.215,1.424-4.039,3.428-5.472
	c2.004-1.433,4.904-2.149,8.701-2.149c2.057,0,3.735,0.171,5.036,0.514c1.301,0.343,2.399,0.923,3.296,1.74
	c0.897,0.817,1.516,1.705,1.859,2.663c0.343,0.958,0.514,2.581,0.514,4.866V56.62C80.697,58.361,80.961,60.154,81.488,62z
	 M74.844,48.447c-7.77,0-11.654,1.854-11.654,5.563c0,1.107,0.391,2.053,1.173,2.836c0.782,0.78,1.964,1.172,3.546,1.172
	c2.285,0,4.012-0.726,5.181-2.175c1.169-1.45,1.753-3.099,1.753-4.944L74.844,48.447L74.844,48.447z M100.235,57.307V62
	c-1.793,0.387-3.182,0.58-4.166,0.58c-1.618,0-3.006-0.32-4.166-0.963c-1.16-0.641-2.008-1.52-2.544-2.637
	c-0.537-1.115-0.804-2.834-0.804-5.154v-13.79h-3.322v-4.667h3.665l0.554-6.935l4.931-0.448v7.383h5.353v4.667h-5.353v12.999
	c0,1.67,0.303,2.809,0.91,3.414c0.606,0.607,1.753,0.91,3.441,0.91C99.207,57.359,99.708,57.342,100.235,57.307z M127.341,62h-6.012
	V44.57c0-1.881-0.4-3.203-1.2-3.967c-0.8-0.765-1.736-1.147-2.808-1.147c-1.705,0-3.138,0.677-4.298,2.03s-1.74,3.586-1.74,6.698V62
	h-6.012V26.009h6.012v14.027c1.494-3.832,4.113-5.748,7.857-5.748c5.467,0,8.2,3.138,8.2,9.413L127.341,62L127.341,62z M157.347,62
	h-5.722c-0.51-1.617-0.817-3.41-0.923-5.379c-1.6,3.955-4.605,5.934-9.018,5.934c-2.654,0-4.786-0.779-6.394-2.334
	c-1.608-1.557-2.413-3.512-2.413-5.867c0-6.117,5.37-9.176,16.11-9.176c0.422,0,0.993,0.01,1.714,0.026V43.2
	c0-2.759-1.881-4.14-5.643-4.14c-3.656,0-5.731,1.38-6.223,4.14l-5.115-0.765c0.281-2.215,1.424-4.039,3.428-5.472
	c2.004-1.433,4.904-2.149,8.701-2.149c2.057,0,3.735,0.171,5.036,0.514c1.301,0.343,2.399,0.923,3.296,1.74
	c0.897,0.817,1.516,1.705,1.859,2.663c0.343,0.958,0.514,2.581,0.514,4.866V56.62C156.556,58.361,156.819,60.154,157.347,62z
	 M150.702,48.447c-7.77,0-11.654,1.854-11.654,5.563c0,1.107,0.391,2.053,1.173,2.836c0.782,0.78,1.964,1.172,3.546,1.172
	c2.285,0,4.012-0.726,5.181-2.175c1.169-1.45,1.753-3.099,1.753-4.944L150.702,48.447L150.702,48.447z M185.797,62h-6.012V45.361
	c0-1.756-0.405-3.08-1.213-3.967c-0.809-0.887-1.784-1.332-2.927-1.332c-1.565,0-2.936,0.686-4.113,2.057
	c-1.178,1.371-1.767,3.438-1.767,6.195V62h-6.012V35.369h5.484v6.17c1.916-4.482,4.605-6.724,8.068-6.724
	c2.337,0,4.337,0.738,5.999,2.215c1.662,1.477,2.492,4.07,2.492,7.779L185.797,62L185.797,62z M234.154,43.596V62h-2.874
	l-1.978-4.852c-2.092,3.604-5.336,5.404-9.729,5.404c-4.904,0-8.565-1.861-10.981-5.59c-2.418-3.727-3.626-8.042-3.626-12.945
	c0-5.186,1.349-9.576,4.048-13.17c2.697-3.595,6.473-5.392,11.324-5.392c3.621,0,6.601,1.051,8.938,3.151
	c2.337,2.101,3.813,4.716,4.43,7.844l-5.643,1.002c-1.055-4.394-3.577-6.592-7.567-6.592c-2.549,0-4.627,1.038-6.236,3.111
	c-1.607,2.074-2.412,5.265-2.412,9.571c0,9.088,2.848,13.632,8.543,13.632c2.215,0,4.047-0.765,5.498-2.294
	c1.449-1.528,2.175-3.551,2.175-6.063h-7.436v-5.221H234.154L234.154,43.596z M251.583,62.555c-3.938,0-6.944-1.416-9.018-4.246
	c-2.074-2.83-3.111-6.072-3.111-9.729c0-3.938,1.147-7.215,3.44-9.835c2.295-2.619,5.322-3.929,9.084-3.929
	c3.568,0,6.5,1.275,8.793,3.823c2.295,2.549,3.441,5.863,3.441,9.94c0,4.202-1.191,7.581-3.572,10.138
	C258.258,61.275,255.238,62.555,251.583,62.555z M251.794,57.598c4.043,0,6.064-3.016,6.064-9.045c0-2.725-0.483-4.873-1.45-6.447
	c-0.967-1.571-2.452-2.358-4.456-2.358c-2.074,0-3.612,0.813-4.614,2.438c-1.002,1.625-1.503,3.783-1.503,6.474
	c0,2.899,0.531,5.114,1.595,6.646C248.494,56.832,249.948,57.598,251.794,57.598z M291.768,62h-6.013V45.361
	c0-1.756-0.403-3.08-1.213-3.967c-0.809-0.887-1.784-1.332-2.927-1.332c-1.564,0-2.936,0.686-4.113,2.057
	c-1.177,1.371-1.767,3.438-1.767,6.195V62h-6.012V35.369h5.484v6.17c1.916-4.482,4.605-6.724,8.068-6.724
	c2.338,0,4.336,0.738,5.999,2.215c1.66,1.477,2.492,4.07,2.492,7.779V62H291.768z M316.71,57.333V62h-20.092v-4.667l12.841-17.297
	h-11.628v-4.667h18.879v4.245l-13.157,17.719H316.71z M344.343,62h-5.722c-0.51-1.617-0.817-3.41-0.923-5.379
	c-1.601,3.955-4.605,5.934-9.019,5.934c-2.653,0-4.786-0.779-6.394-2.334c-1.609-1.557-2.413-3.512-2.413-5.867
	c0-6.117,5.37-9.176,16.11-9.176c0.422,0,0.992,0.01,1.714,0.026V43.2c0-2.759-1.881-4.14-5.644-4.14
	c-3.655,0-5.729,1.38-6.223,4.14l-5.115-0.765c0.281-2.215,1.424-4.039,3.428-5.472c2.005-1.433,4.904-2.149,8.701-2.149
	c2.058,0,3.735,0.171,5.036,0.514c1.301,0.343,2.399,0.923,3.296,1.74c0.897,0.817,1.518,1.705,1.858,2.663
	c0.344,0.958,0.515,2.581,0.515,4.866V56.62C343.552,58.361,343.815,60.154,344.343,62z M337.698,48.447
	c-7.771,0-11.654,1.854-11.654,5.563c0,1.107,0.391,2.053,1.173,2.836c0.782,0.78,1.965,1.172,3.547,1.172
	c2.285,0,4.013-0.726,5.183-2.175c1.168-1.45,1.753-3.099,1.753-4.944L337.698,48.447L337.698,48.447z M356.735,62h-6.013V26.009
	h6.013V62z M380.888,53.51l5.433,0.738c-0.703,2.408-2.074,4.395-4.113,5.959s-4.597,2.348-7.673,2.348
	c-3.691,0-6.662-1.24-8.912-3.719s-3.375-5.836-3.375-10.072c0-4.024,1.134-7.355,3.401-9.993c2.267-2.637,5.344-3.955,9.229-3.955
	c3.797,0,6.732,1.301,8.807,3.902c2.074,2.602,3.111,5.942,3.111,10.021l-0.026,0.686h-18.271c0,1.811,0.171,3.262,0.515,4.352
	c0.343,1.09,1.023,2.039,2.043,2.848c1.021,0.809,2.294,1.213,3.823,1.213C377.847,57.834,379.851,56.393,380.888,53.51z
	 M380.519,45.547c-0.018-1.916-0.593-3.48-1.728-4.693c-1.133-1.213-2.535-1.819-4.205-1.819c-1.652,0-3.032,0.567-4.14,1.701
	c-1.108,1.134-1.758,2.739-1.951,4.812L380.519,45.547L380.519,45.547z M389.035,55.883l5.643-1.081
	c0.861,2.162,2.761,3.243,5.695,3.243c3.727,0,5.59-1.098,5.59-3.296c0-0.702-0.29-1.282-0.87-1.74
	c-0.58-0.457-1.266-0.765-2.057-0.923l-4.853-0.923c-5.379-1.037-8.067-3.665-8.067-7.884c0-2.355,0.853-4.354,2.558-6
	c1.705-1.644,4.245-2.465,7.62-2.465c5.625,0,9.063,2.066,10.311,6.196l-5.354,1.081c-0.563-2.004-2.162-3.006-4.799-3.006
	c-3.199,0-4.799,1.002-4.799,3.006c0,1.389,1.292,2.348,3.876,2.874l5.722,1.187c4.447,0.914,6.671,3.465,6.671,7.646
	c0,2.938-1.143,5.128-3.428,6.579c-2.285,1.449-5.001,2.175-8.147,2.175c-2.725,0-5.133-0.55-7.225-1.646
	C391.03,59.809,389.668,58.133,389.035,55.883z M426.292,45.837v4.931h-13.236v-4.931H426.292z M456.852,62h-6.485V46.364h-13.737
	V62h-6.486V26.009h6.486v14.792h13.737V26.009h6.485V62z M481.347,53.51l5.433,0.738c-0.703,2.408-2.074,4.395-4.113,5.959
	s-4.597,2.348-7.673,2.348c-3.691,0-6.662-1.24-8.912-3.719s-3.375-5.836-3.375-10.072c0-4.024,1.134-7.355,3.401-9.993
	c2.267-2.637,5.344-3.955,9.229-3.955c3.797,0,6.732,1.301,8.807,3.902c2.074,2.602,3.111,5.942,3.111,10.021l-0.026,0.686h-18.271
	c0,1.811,0.171,3.262,0.515,4.352c0.343,1.09,1.023,2.039,2.043,2.848c1.021,0.809,2.294,1.213,3.823,1.213
	C478.306,57.834,480.31,56.393,481.347,53.51z M480.978,45.547c-0.018-1.916-0.593-3.48-1.728-4.693
	c-1.133-1.213-2.535-1.819-4.205-1.819c-1.652,0-3.032,0.567-4.14,1.701c-1.108,1.134-1.758,2.739-1.951,4.812L480.978,45.547
	L480.978,45.547z M489.494,55.883l5.643-1.081c0.861,2.162,2.761,3.243,5.695,3.243c3.727,0,5.59-1.098,5.59-3.296
	c0-0.702-0.29-1.282-0.87-1.74c-0.58-0.457-1.266-0.765-2.057-0.923l-4.853-0.923c-5.379-1.037-8.067-3.665-8.067-7.884
	c0-2.355,0.853-4.354,2.558-6c1.705-1.644,4.245-2.465,7.62-2.465c5.625,0,9.063,2.066,10.311,6.196l-5.354,1.081
	c-0.563-2.004-2.162-3.006-4.799-3.006c-3.199,0-4.799,1.002-4.799,3.006c0,1.389,1.292,2.348,3.876,2.874l5.722,1.187
	c4.447,0.914,6.671,3.465,6.671,7.646c0,2.938-1.143,5.128-3.428,6.579c-2.285,1.449-5.001,2.175-8.147,2.175
	c-2.725,0-5.133-0.55-7.225-1.646C491.489,59.809,490.127,58.133,489.494,55.883z M514.016,55.883l5.644-1.081
	c0.86,2.162,2.76,3.243,5.694,3.243c3.728,0,5.591-1.098,5.591-3.296c0-0.702-0.29-1.282-0.87-1.74
	c-0.58-0.457-1.267-0.765-2.058-0.923l-4.852-0.923c-5.379-1.037-8.068-3.665-8.068-7.884c0-2.355,0.854-4.354,2.559-6
	c1.705-1.644,4.245-2.465,7.62-2.465c5.625,0,9.062,2.066,10.31,6.196l-5.353,1.081c-0.563-2.004-2.162-3.006-4.8-3.006
	c-3.198,0-4.799,1.002-4.799,3.006c0,1.389,1.292,2.348,3.876,2.874l5.723,1.187c4.446,0.914,6.671,3.465,6.671,7.646
	c0,2.938-1.144,5.128-3.429,6.579c-2.284,1.449-5.001,2.175-8.146,2.175c-2.725,0-5.133-0.55-7.225-1.646
	C516.011,59.809,514.648,58.133,514.016,55.883z M583,12c0-6.627-5.373-12-12-12H12C5.373,0,0,5.373,0,12v103.5
	c0,6.627,5.373,12,12,12h559c6.627,0,12-5.373,12-12V12z"/>
</svg>
