<?xml version="1.0" encoding="utf-8"?>
<!-- Generator: Adobe Illustrator 15.1.0, SVG Export Plug-In . SVG Version: 6.00 Build 0)  -->
<!DOCTYPE svg PUBLIC "-//W3C//DTD SVG 1.1//EN" "http://www.w3.org/Graphics/SVG/1.1/DTD/svg11.dtd">
<svg version="1.1" id="Layer_1" xmlns="http://www.w3.org/2000/svg" xmlns:xlink="http://www.w3.org/1999/xlink" x="0px" y="0px"
	 width="141.732px" height="141.732px" viewBox="70.866 70.866 141.732 141.732"
	 enable-background="new 70.866 70.866 141.732 141.732" xml:space="preserve">
<path fill="#DD4814" d="M141.732,85.04c-31.312,0-56.692,25.38-56.692,56.691s25.38,56.693,56.692,56.693
	c31.31,0,56.693-25.382,56.693-56.693S173.042,85.04,141.732,85.04z M179.527,164.428c0,4.176-3.385,7.559-7.56,7.559h-60.472
	c-4.175,0-7.559-3.383-7.559-7.559v-45.354c0-4.175,3.384-7.559,7.559-7.559h24.462v-3.775c0-2.087,1.692-3.779,3.779-3.779h3.778
	c2.086,0,3.779,1.692,3.779,3.779v3.775h24.672c4.176,0,7.559,3.384,7.559,7.559v45.354H179.527z M134.174,119.073
	c-12.504,0-22.676,10.173-22.676,22.676c0,12.505,10.172,22.678,22.676,22.678c12.503,0,22.676-10.173,22.676-22.678
	C156.852,129.246,146.678,119.073,134.174,119.073z M134.174,149.311c-4.167,0-7.558-3.393-7.558-7.562
	c0-4.167,3.391-7.559,7.558-7.559c4.168,0,7.56,3.391,7.56,7.559C141.734,145.918,138.342,149.311,134.174,149.311z
	 M172.011,122.818v3.78c0,2.087-1.692,3.779-3.78,3.779h-3.777c-2.087,0-3.78-1.692-3.78-3.779v-3.78
	c0-2.087,1.693-3.779,3.78-3.779h3.777C170.316,119.039,172.011,120.73,172.011,122.818z"/>
</svg>
