<?xml version="1.0" encoding="utf-8"?>
<!-- Generator: Adobe Illustrator 15.1.0, SVG Export Plug-In . SVG Version: 6.00 Build 0)  -->
<!DOCTYPE svg PUBLIC "-//W3C//DTD SVG 1.1//EN" "http://www.w3.org/Graphics/SVG/1.1/DTD/svg11.dtd">
<svg version="1.1" id="Layer_1" xmlns="http://www.w3.org/2000/svg" xmlns:xlink="http://www.w3.org/1999/xlink" x="0px" y="0px"
	 width="141.732px" height="141.732px" viewBox="70.866 70.866 141.732 141.732"
	 enable-background="new 70.866 70.866 141.732 141.732" xml:space="preserve">
<path fill="#DD4814" d="M141.732,85.04c-31.311,0-56.693,25.382-56.693,56.693c0,31.31,25.382,56.692,56.693,56.692
	s56.692-25.382,56.692-56.692C198.425,110.421,173.043,85.04,141.732,85.04z M167.244,176.521c0,2.561-2.078,4.639-4.639,4.639
	h-41.747c-2.562,0-4.639-2.078-4.639-4.639v-69.579c0-2.562,2.077-4.638,4.639-4.638h41.747c2.561,0,4.639,2.076,4.639,4.638
	V176.521z M162.748,109.286v27.832c0,1.281-1.037,2.319-2.318,2.319h-37.107c-1.28,0-2.319-1.038-2.319-2.319v-27.832
	c0-1.281,1.039-2.319,2.319-2.319h37.107C161.711,106.966,162.748,108.005,162.748,109.286z M141.781,146.451
	c-7.672,0-13.915,6.242-13.915,13.915s6.243,13.915,13.915,13.915c7.673,0,13.916-6.242,13.916-13.915
	S149.454,146.451,141.781,146.451z M141.781,165.004c-2.557,0-4.638-2.079-4.638-4.638c0-2.558,2.081-4.638,4.638-4.638
	c2.557,0,4.639,2.08,4.639,4.638C146.42,162.925,144.338,165.004,141.781,165.004z"/>
</svg>
