<?xml version="1.0" encoding="utf-8"?>
<!-- Generator: Adobe Illustrator 15.1.0, SVG Export Plug-In . SVG Version: 6.00 Build 0)  -->
<!DOCTYPE svg PUBLIC "-//W3C//DTD SVG 1.1//EN" "http://www.w3.org/Graphics/SVG/1.1/DTD/svg11.dtd">
<svg version="1.1" id="Layer_1" xmlns="http://www.w3.org/2000/svg" xmlns:xlink="http://www.w3.org/1999/xlink" x="0px" y="0px"
	 width="141.732px" height="141.732px" viewBox="70.866 70.866 141.732 141.732"
	 enable-background="new 70.866 70.866 141.732 141.732" xml:space="preserve">
<g>
	<path fill="#DD4814" d="M141.737,85.041c-31.312,0-56.691,25.38-56.691,56.692s25.38,56.695,56.691,56.695
		c31.311,0,56.694-25.383,56.694-56.695S173.048,85.041,141.737,85.041z M141.753,131.1c1.687,0,3.287,0.242,4.779,0.667v-27.178
		c0-1.656,0.854-3.195,2.26-4.072c1.406-0.876,3.163-0.965,4.651-0.236l14.479,7.101c2.379,1.167,3.362,4.042,2.195,6.421
		c-1.166,2.38-4.041,3.362-6.421,2.196l-7.569-3.712v30.488c0.004,0.107,0.021,0.211,0.021,0.32c0,6.728-6.324,11.996-14.396,11.996
		c-8.072,0-14.396-5.27-14.396-11.996C127.357,136.369,133.681,131.1,141.753,131.1z M127.413,159.891
		c3.824,3.906,8.942,6.09,14.409,6.146c5.479,0.054,10.629-2.02,14.535-5.844l4.093,4.179c-4.955,4.854-11.482,7.517-18.406,7.517
		c-0.094,0-0.188-0.002-0.283-0.003c-7.03-0.073-13.609-2.881-18.527-7.903L127.413,159.891z M142.049,186.509
		c-0.148,0-0.294-0.001-0.443-0.002c-10.935-0.116-21.17-4.481-28.819-12.297l4.179-4.092c6.557,6.698,15.33,10.44,24.702,10.54
		c9.385,0.119,18.223-3.459,24.918-10.018l4.092,4.178C162.971,182.367,152.818,186.509,142.049,186.509z"/>
</g>
</svg>
