<?xml version="1.0" encoding="utf-8"?>
<!-- Generator: Adobe Illustrator 15.1.0, SVG Export Plug-In . SVG Version: 6.00 Build 0)  -->
<!DOCTYPE svg PUBLIC "-//W3C//DTD SVG 1.1//EN" "http://www.w3.org/Graphics/SVG/1.1/DTD/svg11.dtd">
<svg version="1.1" id="Layer_1" xmlns="http://www.w3.org/2000/svg" xmlns:xlink="http://www.w3.org/1999/xlink" x="0px" y="0px"
	 width="141.732px" height="141.732px" viewBox="70.866 70.866 141.732 141.732"
	 enable-background="new 70.866 70.866 141.732 141.732" xml:space="preserve">
<path fill="#DD4814" d="M114.017,138.068c0,1.284-1.041,2.326-2.327,2.326c-1.285,0-2.325-1.042-2.325-2.326
	c0-1.284,1.041-2.326,2.325-2.326C112.976,135.743,114.017,136.784,114.017,138.068z M118.4,135.743
	c-1.284,0-2.326,1.042-2.326,2.326c0,1.284,1.042,2.326,2.326,2.326c1.285,0,2.327-1.042,2.327-2.326
	C120.727,136.785,119.685,135.743,118.4,135.743z M198.425,141.732c0,31.311-25.382,56.692-56.692,56.692
	S85.04,173.043,85.04,141.732s25.382-56.693,56.693-56.693S198.425,110.422,198.425,141.732z M119.635,128.287h44.194V99.212h-3.486
	v2.319h1.155v2.325h-4.652v-2.325h1.17v-2.319h-4.65v2.319h1.154v2.325h-4.651v-2.325h1.171v-2.319h-4.65v2.319h1.153v2.325h-4.651
	v-2.325h1.172v-2.319h-4.652v2.319h1.154v2.325h-4.652v-2.325h1.171v-2.319h-4.651v2.319h1.155v2.325h-4.653v-2.325h1.172v-2.319
	h-4.652v2.319h1.173v2.325h-4.653v-2.325h1.154v-2.319h-3.491v29.075H119.635z M160.411,163.624h-37.216v9.289h37.216V163.624z
	 M178.948,135.697c0-2.57-2.083-4.652-4.652-4.652h-65.128c-2.569,0-4.651,2.083-4.651,4.652v32.562
	c0,2.569,2.082,4.653,4.651,4.653h9.375v-11.615c0-1.282,1.042-2.325,2.326-2.325h41.868c1.282,0,2.325,1.043,2.325,2.325v11.615
	h9.232c2.569,0,4.652-2.084,4.652-4.653L178.948,135.697L178.948,135.697z"/>
</svg>
