<?xml version="1.0" encoding="utf-8"?>
<!-- Generator: Adobe Illustrator 15.1.0, SVG Export Plug-In . SVG Version: 6.00 Build 0)  -->
<!DOCTYPE svg PUBLIC "-//W3C//DTD SVG 1.1//EN" "http://www.w3.org/Graphics/SVG/1.1/DTD/svg11.dtd">
<svg version="1.1" id="Layer_1" xmlns="http://www.w3.org/2000/svg" xmlns:xlink="http://www.w3.org/1999/xlink" x="0px" y="0px"
	 width="141.732px" height="141.732px" viewBox="70.866 70.866 141.732 141.732"
	 enable-background="new 70.866 70.866 141.732 141.732" xml:space="preserve">
<path fill="#DD4814" d="M141.732,85.039c-31.261,0-56.693,25.432-56.693,56.692c0,31.262,25.432,56.694,56.693,56.694
	s56.693-25.433,56.693-56.694C198.426,110.471,172.993,85.039,141.732,85.039z M180.698,166.504c0,1.957-1.586,3.543-3.543,3.543
	h-70.866c-1.957,0-3.543-1.586-3.543-3.543v-49.607v-7.086c0-1.957,1.586-3.543,3.543-3.543h24.804c1.957,0,3.543,1.586,3.543,3.543
	v3.543h42.52c1.957,0,3.543,1.586,3.543,3.543V166.504z M159.323,141.722c0,9.77-7.947,17.717-17.715,17.717
	c-9.769,0-17.717-7.947-17.717-17.717c0-9.165,6.995-16.725,15.926-17.625v-5.223c0-0.717,0.432-1.362,1.093-1.637
	c0.661-0.274,1.423-0.123,1.931,0.384l8.671,8.671c0.333,0.332,0.521,0.782,0.521,1.252c0,0.47-0.188,0.921-0.521,1.253
	l-8.671,8.672c-0.339,0.339-0.792,0.519-1.253,0.519c-0.229,0-0.458-0.044-0.678-0.135c-0.662-0.274-1.094-0.92-1.094-1.637v-4.962
	c-5.01,0.855-8.839,5.217-8.839,10.467c0,5.861,4.769,10.63,10.63,10.63s10.629-4.77,10.629-10.63c0-1.957,1.586-3.543,3.543-3.543
	S159.323,139.765,159.323,141.722z"/>
</svg>
